<svg width="104" height="124" viewBox="0 0 104 124" fill="none" xmlns="http://www.w3.org/2000/svg">
<path fill-rule="evenodd" clip-rule="evenodd" d="M68.4746 62.581H65.4309V66.7462C65.4309 68.1879 64.2694 69.3494 62.8277 69.3494H59.2232C57.7815 69.3494 56.62 68.1879 56.62 66.7462V62.6211H40.7205V66.7462C40.7205 68.1879 39.559 69.3494 38.1173 69.3494H34.5128C33.071 69.3494 31.9096 68.1879 31.9096 66.7462V62.6211H28.9059V29.7807C28.9059 26.7369 30.6681 24.5342 34.2325 23.1725C41.2811 20.4091 56.0994 20.4091 63.1881 23.1725C66.7525 24.5342 68.5147 26.7369 68.5147 29.7807V62.581H68.4746ZM71.5985 37.2699H70.0766V45.9205H71.5985C72.5597 45.9205 73.3206 45.1596 73.3206 44.1984V38.992C73.3206 38.0308 72.5597 37.2699 71.5985 37.2699ZM25.8221 37.2699H27.344V45.9205H25.8221C24.8609 45.9205 24.1 45.1596 24.1 44.1984V38.992C24.1 38.0308 24.8609 37.2699 25.8221 37.2699ZM42.6829 24.5342H54.7377C55.0982 24.5342 55.3785 24.8145 55.3785 25.175V27.2576C55.3785 27.618 55.0982 27.8983 54.7377 27.8983H42.6829C42.3224 27.8983 42.0421 27.618 42.0421 27.2576V25.175C42.0421 24.8145 42.3224 24.5342 42.6829 24.5342ZM33.2713 30.3814H63.9891C64.3896 30.3814 64.75 30.7418 64.75 31.1423V48.2834C64.75 48.6839 64.3896 49.0444 63.9891 49.0444H33.2713C32.8708 49.0444 32.5104 48.6839 32.5104 48.2834V31.1423C32.5104 30.7418 32.8307 30.3814 33.2713 30.3814ZM63.5886 55.0918C63.5886 54.3309 63.3083 53.65 62.7876 53.1294C62.267 52.6088 61.5861 52.3284 60.8252 52.3284C60.0643 52.3284 59.4235 52.6088 58.8628 53.1294C58.3021 53.65 58.0618 54.3309 58.0618 55.0918C58.0618 55.8528 58.3422 56.4935 58.8628 57.0142C59.4235 57.5348 60.0643 57.8152 60.8252 57.8152C61.5861 57.8152 62.267 57.5348 62.7876 57.0142C63.3483 56.4935 63.5886 55.8528 63.5886 55.0918ZM39.3588 55.0918C39.3588 54.3309 39.0784 53.65 38.5578 53.1294C38.0372 52.6088 37.3563 52.3284 36.5954 52.3284C35.8344 52.3284 35.1536 52.6088 34.633 53.1294C34.1123 53.65 33.832 54.3309 33.832 55.0918C33.832 55.8528 34.0723 56.4935 34.633 57.0142C35.1536 57.5348 35.8344 57.8152 36.5954 57.8152C37.3964 57.8152 38.0372 57.5348 38.5578 57.0142C39.0784 56.4935 39.3588 55.8528 39.3588 55.0918Z" fill="black"/>
<g filter="url(#filter0_d_29_2)">
<path d="M8.1 17.5691C8.1 10.6826 12.5772 5.09998 18.1 5.09998H79.1C84.6228 5.09998 89.1 10.6826 89.1 17.5691V93.6308C89.1 100.517 84.6228 106.1 79.1 106.1H18.1C12.5771 106.1 8.1 100.517 8.1 93.6308V17.5691Z" fill="#3D1BD7"/>
<path d="M79.1 4.59998C84.9962 4.59998 89.5998 10.5149 89.6 17.5687V93.6312C89.5998 100.685 84.9962 106.6 79.1 106.6H18.1C12.2038 106.6 7.60017 100.685 7.6 93.6312V17.5687C7.60017 10.5149 12.2038 4.59998 18.1 4.59998H79.1Z" stroke="white"/>
<path d="M18.1 21.6308C18.1 17.4717 21.4717 14.1 25.6309 14.1H71.5691C75.7283 14.1 79.1 17.4717 79.1 21.6308V67.5691C79.1 71.7283 75.7283 75.1 71.5691 75.1H25.6309C21.4717 75.1 18.1 71.7283 18.1 67.5691V21.6308Z" fill="white"/>
<path fill-rule="evenodd" clip-rule="evenodd" d="M68.4746 62.581H65.4309V66.7462C65.4309 68.1879 64.2694 69.3494 62.8277 69.3494H59.2232C57.7815 69.3494 56.62 68.1879 56.62 66.7462V62.6211H40.7205V66.7462C40.7205 68.1879 39.559 69.3494 38.1173 69.3494H34.5128C33.071 69.3494 31.9096 68.1879 31.9096 66.7462V62.6211H28.9059V29.7807C28.9059 26.7369 30.6681 24.5342 34.2325 23.1725C41.2811 20.4091 56.0994 20.4091 63.1881 23.1725C66.7525 24.5342 68.5147 26.7369 68.5147 29.7807V62.581H68.4746ZM71.5985 37.2699H70.0766V45.9205H71.5985C72.5597 45.9205 73.3206 45.1596 73.3206 44.1984V38.992C73.3206 38.0308 72.5597 37.2699 71.5985 37.2699ZM25.8221 37.2699H27.344V45.9205H25.8221C24.8609 45.9205 24.1 45.1596 24.1 44.1984V38.992C24.1 38.0308 24.8609 37.2699 25.8221 37.2699ZM42.6829 24.5342H54.7377C55.0982 24.5342 55.3785 24.8145 55.3785 25.175V27.2576C55.3785 27.618 55.0982 27.8983 54.7377 27.8983H42.6829C42.3224 27.8983 42.0421 27.618 42.0421 27.2576V25.175C42.0421 24.8145 42.3224 24.5342 42.6829 24.5342ZM33.2713 30.3814H63.9891C64.3896 30.3814 64.75 30.7418 64.75 31.1423V48.2834C64.75 48.6839 64.3896 49.0444 63.9891 49.0444H33.2713C32.8708 49.0444 32.5104 48.6839 32.5104 48.2834V31.1423C32.5104 30.7418 32.8307 30.3814 33.2713 30.3814ZM63.5886 55.0918C63.5886 54.3309 63.3083 53.65 62.7876 53.1294C62.267 52.6088 61.5861 52.3284 60.8252 52.3284C60.0643 52.3284 59.4235 52.6088 58.8628 53.1294C58.3021 53.65 58.0618 54.3309 58.0618 55.0918C58.0618 55.8528 58.3422 56.4935 58.8628 57.0142C59.4235 57.5348 60.0643 57.8152 60.8252 57.8152C61.5861 57.8152 62.267 57.5348 62.7876 57.0142C63.3483 56.4935 63.5886 55.8528 63.5886 55.0918ZM39.3588 55.0918C39.3588 54.3309 39.0784 53.65 38.5578 53.1294C38.0372 52.6088 37.3563 52.3284 36.5954 52.3284C35.8344 52.3284 35.1536 52.6088 34.633 53.1294C34.1123 53.65 33.832 54.3309 33.832 55.0918C33.832 55.8528 34.0723 56.4935 34.633 57.0142C35.1536 57.5348 35.8344 57.8152 36.5954 57.8152C37.3964 57.8152 38.0372 57.5348 38.5578 57.0142C39.0784 56.4935 39.3588 55.8528 39.3588 55.0918Z" fill="black"/>
</g>
<defs>
<filter id="filter0_d_29_2" x="-1.90735e-06" y="-2.47955e-05" width="103.2" height="123.2" filterUnits="userSpaceOnUse" color-interpolation-filters="sRGB">
<feFlood flood-opacity="0" result="BackgroundImageFix"/>
<feColorMatrix in="SourceAlpha" type="matrix" values="0 0 0 0 0 0 0 0 0 0 0 0 0 0 0 0 0 0 127 0" result="hardAlpha"/>
<feOffset dx="3" dy="6"/>
<feGaussianBlur stdDeviation="5.05"/>
<feComposite in2="hardAlpha" operator="out"/>
<feColorMatrix type="matrix" values="0 0 0 0 0 0 0 0 0 0 0 0 0 0 0 0 0 0 0.25 0"/>
<feBlend mode="normal" in2="BackgroundImageFix" result="effect1_dropShadow_29_2"/>
<feBlend mode="normal" in="SourceGraphic" in2="effect1_dropShadow_29_2" result="shape"/>
</filter>
</defs>
</svg>
