<svg width="104" height="104" viewBox="0 0 104 104" fill="none" xmlns="http://www.w3.org/2000/svg">
<g filter="url(#filter0_d_4_142)">
<path d="M8.1 15.1C8.1 9.57713 12.5772 5.09998 18.1 5.09998H79.1C84.6228 5.09998 89.1 9.57713 89.1 15.1V76.1C89.1 81.6228 84.6228 86.1 79.1 86.1H18.1C12.5772 86.1 8.1 81.6228 8.1 76.1V15.1Z" fill="#3D1BD7"/>
<path d="M45.9944 12.6661C47.1456 10.6486 50.0543 10.6486 51.2056 12.6661L82.8457 68.1131C83.987 70.1131 82.5428 72.6 80.2401 72.6H16.9599C14.6572 72.6 13.213 70.1131 14.3543 68.1131L45.9944 12.6661Z" fill="white"/>
<path fill-rule="evenodd" clip-rule="evenodd" d="M50.6486 32.6999C52.7365 32.6999 54.4289 30.9986 54.4289 28.8999C54.4289 26.8013 52.7365 25.1 50.6486 25.1C48.5609 25.1 46.8683 26.8013 46.8683 28.8999C46.8683 30.9986 48.5609 32.6999 50.6486 32.6999ZM46.9681 33.8505C47.5943 33.5358 48.3424 33.5947 48.9121 34.0038L50.8023 35.361C51.4035 35.7927 51.6993 36.5371 51.5596 37.2665L49.5772 47.6091L57.8919 60.1458C58.4708 61.0188 58.2363 62.1985 57.3676 62.7807C56.499 63.3626 55.3254 63.1266 54.7465 62.2536L44.4604 46.7444C44.1906 46.3376 44.0872 45.8419 44.1717 45.3603L45.2992 38.9377L41.9248 40.6337L40.844 46.0633C40.6391 47.0923 39.6433 47.7594 38.6197 47.5536C37.596 47.3477 36.9323 46.3466 37.1371 45.3177L38.3993 38.9771C38.5137 38.4022 38.8858 37.9126 39.4074 37.6505L46.9681 33.8505ZM57.6116 45.9023L52.1783 44.0818L52.8996 40.3181L58.8071 42.2973C59.7974 42.6292 60.3327 43.7052 60.0024 44.7006C59.6724 45.6962 58.602 46.2343 57.6116 45.9023ZM37.6602 60.2681L43.8371 49.23L46.1897 52.7769L40.955 62.1312C40.4433 63.0457 39.2908 63.37 38.381 62.8557C37.4711 62.3412 37.1484 61.1828 37.6602 60.2681Z" fill="black"/>
<path d="M45.5 58.1H49.7L52.1 70.1H43.1L45.5 58.1Z" fill="black"/>
<path d="M30.4 58.1H34.6L29.4 70.1H20.1L30.4 58.1Z" fill="black"/>
<path d="M64.3 58.1H60.1L65.3 70.1H74.6L64.3 58.1Z" fill="black"/>
<path d="M79.1 4.59998C84.899 4.59998 89.6 9.30099 89.6 15.1V76.1C89.6 81.899 84.899 86.6 79.1 86.6H18.1C12.301 86.6 7.6 81.899 7.6 76.1V15.1C7.6 9.30099 12.301 4.59998 18.1 4.59998H79.1Z" stroke="white"/>
</g>
<defs>
<filter id="filter0_d_4_142" x="-1.90735e-06" y="-2.47955e-05" width="103.2" height="103.2" filterUnits="userSpaceOnUse" color-interpolation-filters="sRGB">
<feFlood flood-opacity="0" result="BackgroundImageFix"/>
<feColorMatrix in="SourceAlpha" type="matrix" values="0 0 0 0 0 0 0 0 0 0 0 0 0 0 0 0 0 0 127 0" result="hardAlpha"/>
<feOffset dx="3" dy="6"/>
<feGaussianBlur stdDeviation="5.05"/>
<feComposite in2="hardAlpha" operator="out"/>
<feColorMatrix type="matrix" values="0 0 0 0 0 0 0 0 0 0 0 0 0 0 0 0 0 0 0.25 0"/>
<feBlend mode="normal" in2="BackgroundImageFix" result="effect1_dropShadow_4_142"/>
<feBlend mode="normal" in="SourceGraphic" in2="effect1_dropShadow_4_142" result="shape"/>
</filter>
</defs>
</svg>
