<svg width="276" height="44" viewBox="0 0 276 44" fill="none" xmlns="http://www.w3.org/2000/svg">
<path d="M0.999998 42.318L275 42.318L1 3.31802L0.999998 42.318Z" fill="url(#paint0_linear_25_2)"/>
<path d="M275 42.318L275 43.318L275.14 41.3279L275 42.318ZM0.999998 42.318L-2.16981e-06 42.318L-2.22545e-06 43.318L0.999998 43.318L0.999998 42.318ZM6 4.31799L15.0941 11.4335L16.7093 2.78135e-06L6 4.31799ZM275 42.318L275 41.318L0.999998 41.318L0.999998 42.318L0.999998 43.318L275 43.318L275 42.318ZM0.999998 42.318L2 42.318L2 3.31802L1 3.31802L0 3.31802L-2.16981e-06 42.318L0.999998 42.318ZM14.9115 5.57687L14.7716 6.56704L274.86 43.3082L275 42.318L275.14 41.3279L15.0514 4.5867L14.9115 5.57687Z" fill="black"/>
<defs>
<linearGradient id="paint0_linear_25_2" x1="0.999999" y1="22.818" x2="256" y2="42.318" gradientUnits="userSpaceOnUse">
<stop stop-color="#ED3B3B"/>
<stop offset="0.484438" stop-color="#DEC821"/>
<stop offset="1" stop-color="#35E809"/>
</linearGradient>
</defs>
</svg>
