<svg width="81" height="81" viewBox="0 0 81 81" fill="none" xmlns="http://www.w3.org/2000/svg">
<circle cx="40.5" cy="40.5" r="40.5" fill="#FF2B2E"/>
<circle cx="40.5" cy="40.5" r="30.5" fill="white"/>
<path d="M35.2188 28.9688H35.9688V32.8438H35.6875C34.5938 32.8438 33.5938 33 32.6875 33.3125C31.7917 33.625 31.0156 34.0885 30.3594 34.7031C29.7031 35.3073 29.1979 36.0573 28.8438 36.9531C28.5 37.8385 28.3281 38.8594 28.3281 40.0156V43.8906C28.3281 44.6719 28.3958 45.3542 28.5312 45.9375C28.6771 46.5104 28.8854 46.9896 29.1562 47.375C29.4375 47.75 29.776 48.0365 30.1719 48.2344C30.5677 48.4219 31.0156 48.5156 31.5156 48.5156C31.9635 48.5156 32.375 48.4167 32.75 48.2188C33.125 48.0208 33.4479 47.7396 33.7188 47.375C33.9896 47.0104 34.1979 46.5885 34.3438 46.1094C34.4896 45.6198 34.5625 45.0885 34.5625 44.5156C34.5625 43.9115 34.4844 43.3646 34.3281 42.875C34.1823 42.375 33.9688 41.9479 33.6875 41.5938C33.4167 41.2396 33.0833 40.9688 32.6875 40.7812C32.2917 40.5833 31.8542 40.4844 31.375 40.4844C30.6875 40.4844 30.0938 40.6406 29.5938 40.9531C29.0938 41.2656 28.7083 41.6667 28.4375 42.1562C28.1667 42.6458 28.026 43.1458 28.0156 43.6562L26.7188 42.5781C26.7188 41.8698 26.8594 41.1719 27.1406 40.4844C27.4323 39.7865 27.8438 39.1562 28.375 38.5938C28.9062 38.0208 29.5573 37.5677 30.3281 37.2344C31.1094 36.8906 32 36.7188 33 36.7188C34.0521 36.7188 34.9792 36.9219 35.7812 37.3281C36.5833 37.724 37.2552 38.276 37.7969 38.9844C38.349 39.6927 38.7604 40.5208 39.0312 41.4688C39.3125 42.4062 39.4531 43.4115 39.4531 44.4844C39.4531 45.5885 39.2604 46.6198 38.875 47.5781C38.5 48.526 37.9688 49.3542 37.2812 50.0625C36.5938 50.7708 35.7708 51.3229 34.8125 51.7188C33.8646 52.1146 32.8073 52.3125 31.6406 52.3125C30.4323 52.3125 29.3281 52.099 28.3281 51.6719C27.3385 51.2448 26.474 50.6354 25.7344 49.8438C25.0052 49.0417 24.4375 48.0833 24.0312 46.9688C23.6354 45.8542 23.4375 44.6042 23.4375 43.2188V41.3906C23.4375 39.4948 23.7292 37.7865 24.3125 36.2656C24.9062 34.7448 25.7292 33.4427 26.7812 32.3594C27.8438 31.2656 29.0938 30.4271 30.5312 29.8438C31.9688 29.2604 33.5312 28.9688 35.2188 28.9688ZM57.5 38.5938V42.6406C57.5 44.3073 57.3125 45.75 56.9375 46.9688C56.5729 48.1875 56.0417 49.1927 55.3438 49.9844C54.6562 50.776 53.8333 51.3646 52.875 51.75C51.9271 52.125 50.875 52.3125 49.7188 52.3125C48.7917 52.3125 47.9271 52.1927 47.125 51.9531C46.3229 51.7135 45.599 51.3438 44.9531 50.8438C44.3177 50.3333 43.7708 49.6979 43.3125 48.9375C42.8542 48.1771 42.5 47.2708 42.25 46.2188C42.0104 45.1667 41.8906 43.974 41.8906 42.6406V38.5938C41.8906 36.9062 42.0729 35.4583 42.4375 34.25C42.8125 33.0417 43.349 32.0417 44.0469 31.25C44.7448 30.4583 45.5677 29.875 46.5156 29.5C47.474 29.125 48.5312 28.9375 49.6875 28.9375C50.6146 28.9375 51.474 29.0573 52.2656 29.2969C53.0677 29.5365 53.7917 29.9062 54.4375 30.4062C55.0833 30.9062 55.6302 31.5365 56.0781 32.2969C56.5365 33.0573 56.8854 33.9635 57.125 35.0156C57.375 36.0573 57.5 37.25 57.5 38.5938ZM52.625 43.25V37.9531C52.625 37.1719 52.5781 36.4948 52.4844 35.9219C52.401 35.3385 52.276 34.8438 52.1094 34.4375C51.9531 34.0312 51.7552 33.7031 51.5156 33.4531C51.276 33.2031 51 33.0208 50.6875 32.9062C50.3854 32.7812 50.0521 32.7188 49.6875 32.7188C49.2292 32.7188 48.8177 32.8125 48.4531 33C48.0885 33.1875 47.7812 33.4844 47.5312 33.8906C47.2812 34.2865 47.0885 34.8229 46.9531 35.5C46.8281 36.1667 46.7656 36.9844 46.7656 37.9531V43.25C46.7656 44.0312 46.8073 44.7135 46.8906 45.2969C46.9844 45.8802 47.1094 46.3802 47.2656 46.7969C47.4323 47.2031 47.6354 47.5365 47.875 47.7969C48.1146 48.0469 48.3906 48.2292 48.7031 48.3438C49.0156 48.4583 49.3542 48.5156 49.7188 48.5156C50.1771 48.5156 50.5833 48.4271 50.9375 48.25C51.2917 48.0625 51.5938 47.7656 51.8438 47.3594C52.1042 46.9427 52.2969 46.3958 52.4219 45.7188C52.5573 45.0417 52.625 44.2188 52.625 43.25Z" fill="black"/>
</svg>
